<svg xmlns="http://www.w3.org/2000/svg" viewBox="0 0 32 40" x="0px" y="0px" fill="#FFFFFF"><g><path d="M23.5,7.57V2H8.5V7.57H2V30H30V7.57ZM8.5,28H4V9.57H8.5Zm6.64,0V25.36h1.71V28Zm6.36,0H18.86V23.36H13.14V28H10.5V4h11V28ZM28,28H23.5V9.57H28Z"/><rect x="12.29" y="10.82" width="7.43" height="2"/><rect x="12.29" y="15" width="7.43" height="2"/><rect x="12.29" y="19.64" width="7.43" height="2"/><rect x="4.86" y="10.82" width="2.79" height="2"/><rect x="4.86" y="15" width="2.79" height="2"/><rect x="4.86" y="19.64" width="2.79" height="2"/><rect x="4.86" y="23.36" width="2.79" height="2"/><rect x="24.36" y="10.82" width="2.79" height="2"/><rect x="24.36" y="15" width="2.79" height="2"/><rect x="24.36" y="19.64" width="2.79" height="2"/><rect x="24.36" y="23.36" width="2.79" height="2"/><rect x="12.29" y="6.64" width="7.43" height="2"/></g><text x="0" y="47" fill="#000000" font-size="5px" font-weight="bold" font-family="'Helvetica Neue', Helvetica, Arial-Unicode, Arial, Sans-serif">Created by suryo jatmiko</text><text x="0" y="52" fill="#000000" font-size="5px" font-weight="bold" font-family="'Helvetica Neue', Helvetica, Arial-Unicode, Arial, Sans-serif">from the Noun Project</text></svg>